Coordinates
version=1
nRows=39
nColumns=34
inDegrees=no

Units are S.I. units (second, meters, Newtons, ...)
If the header above contains a line with 'inDegrees', this indicates whether rotational values are in degrees (yes) or radians (no).

endheader
time	pelvis_tilt	pelvis_list	pelvis_rotation	pelvis_tx	pelvis_ty	pelvis_tz	hip_flexion_r	hip_adduction_r	hip_rotation_r	knee_angle_r	ankle_angle_r	subtalar_angle_r	mtp_angle_r	hip_flexion_l	hip_adduction_l	hip_rotation_l	knee_angle_l	ankle_angle_l	subtalar_angle_l	mtp_angle_l	lumbar_extension	lumbar_bending	lumbar_rotation	arm_flex_r	arm_add_r	arm_rot_r	elbow_flex_r	pro_sup_r	arm_flex_l	arm_add_l	arm_rot_l	elbow_flex_l	pro_sup_l
0	0.00686903	0.0259884	0.0264531	-0.234345	0.919677	-0.219313	0.474165	-0.0597957	-0.135102	0.075741	0.256638	0.149105	0	-0.380998	0.0423666	0.0321994	0.128423	0.316662	0.065647	0	-0.207985	-0.0374661	-0.117827	-0.0830058	-0.137491	-0.0988101	0.6517	2.09	0.0148992	-0.222852	0.034705	0.676927	2.09
0.01	0.00237477	0.0261663	0.0300855	-0.220761	0.917753	-0.21896	0.487112	-0.0616945	-0.147075	0.106608	0.23041	0.150347	0	-0.372846	0.0393709	0.0237521	0.16109	0.31447	0.0869758	0	-0.198922	-0.0295063	-0.108604	-0.0918071	-0.133933	-0.119833	0.648775	2.09	0.0215614	-0.218722	0.0447512	0.661525	2.09
0.02	-0.000709202	0.021571	0.0338602	-0.206096	0.915939	-0.218382	0.495521	-0.0590772	-0.163167	0.134983	0.205638	0.154945	0	-0.365286	0.0280751	-0.00810591	0.197333	0.320688	0.141575	0	-0.189553	-0.0162978	-0.104076	-0.0993509	-0.131575	-0.134889	0.644413	2.09	0.0209139	-0.21395	0.0470754	0.650099	2.09
0.03	-0.00342179	0.0149402	0.0370433	-0.191038	0.914327	-0.217588	0.502571	-0.0538824	-0.173989	0.163033	0.178652	0.152588	0	-0.357945	0.0145509	-0.0335371	0.233623	0.317952	0.1817	0	-0.179963	-0.00111054	-0.101235	-0.105508	-0.130037	-0.145837	0.638878	2.09	0.0170668	-0.20871	0.0447894	0.64048	2.09
0.04	-0.00616039	0.00737666	0.0391024	-0.175803	0.912987	-0.216564	0.509746	-0.0473	-0.181671	0.19257	0.152388	0.149369	0	-0.348981	0.000772644	-0.051517	0.271794	0.305353	0.205018	0	-0.170042	0.0147168	-0.098127	-0.110689	-0.129069	-0.154473	0.632523	2.09	0.0119943	-0.203011	0.0401995	0.631144	2.09
0.05	-0.00916058	-0.00107526	0.0397308	-0.160502	0.911951	-0.215283	0.517768	-0.0395244	-0.18808	0.22463	0.13013	0.149164	0	-0.335989	-0.014433	-0.0713544	0.315636	0.286745	0.224911	0	-0.159715	0.0310448	-0.0938983	-0.114985	-0.12863	-0.161542	0.625439	2.09	0.00641817	-0.196756	0.0338754	0.621599	2.09
0.06	-0.0120179	-0.0100548	0.0387285	-0.145206	0.911282	-0.213789	0.526099	-0.0308682	-0.193109	0.259188	0.114392	0.1521	0	-0.3192	-0.0302669	-0.090187	0.365073	0.25969	0.235627	0	-0.149679	0.0475294	-0.0883609	-0.118202	-0.128788	-0.167244	0.617658	2.09	0.000630271	-0.189824	0.0256134	0.611901	2.09
0.07	-0.0143912	-0.019374	0.0361495	-0.129993	0.911011	-0.212127	0.53388	-0.0213756	-0.196385	0.295378	0.106535	0.156677	0	-0.298607	-0.0464592	-0.107041	0.420331	0.222989	0.234363	0	-0.140567	0.064007	-0.0816987	-0.120114	-0.129577	-0.17168	0.60928	2.09	-0.00525071	-0.182166	0.0150611	0.60233	2.09
0.08	-0.0161245	-0.0290686	0.0322358	-0.114937	0.911126	-0.210325	0.540119	-0.0107175	-0.197364	0.331494	0.106359	0.160401	0	-0.2741	-0.0633729	-0.12222	0.481473	0.17635	0.220415	0	-0.132752	0.0804852	-0.0742733	-0.120559	-0.130976	-0.174872	0.600494	2.09	-0.0111989	-0.173832	0.00193335	0.593251	2.09
0.09	-0.0172576	-0.0381836	0.0277487	-0.0999703	0.911479	-0.208363	0.545373	-0.000320703	-0.197583	0.368711	0.114831	0.163804	0	-0.246106	-0.0805876	-0.135446	0.547381	0.120072	0.193855	0	-0.125886	0.095634	-0.0670313	-0.120015	-0.132436	-0.177061	0.591769	2.09	-0.0177642	-0.165478	-0.0138174	0.585553	2.09
0.1	-0.0170367	-0.0512668	0.0222055	-0.0855097	0.912474	-0.206374	0.543525	0.0163776	-0.194208	0.395218	0.12284	0.160102	0	-0.215575	-0.102946	-0.148629	0.616787	0.0552434	0.155218	0	-0.122071	0.114941	-0.0589922	-0.116798	-0.135487	-0.1774	0.58269	2.09	-0.0231268	-0.155495	-0.0320451	0.5775	2.09
0.11	-0.0155831	-0.064998	0.0172206	-0.071175	0.913762	-0.204253	0.5373	0.0346891	-0.189725	0.416822	0.133809	0.15264	0	-0.184437	-0.126934	-0.158385	0.685909	-0.0160911	0.104475	0	-0.119858	0.134026	-0.0521394	-0.112556	-0.138562	-0.176374	0.574056	2.09	-0.0289536	-0.145669	-0.0525711	0.57096	2.09
0.12	-0.0119333	-0.0824649	0.0126317	-0.0571478	0.915641	-0.202066	0.521989	0.058449	-0.184546	0.425662	0.143093	0.142409	0	-0.15485	-0.156576	-0.167796	0.752728	-0.0858408	0.0516763	0	-0.120957	0.156528	-0.045445	-0.106791	-0.142417	-0.174433	0.566257	2.09	-0.0338258	-0.135309	-0.0735358	0.564417	2.09
0.13	-0.0121506	-0.0916897	0.00617271	-0.0434954	0.917055	-0.199751	0.514611	0.07269	-0.181395	0.441934	0.159381	0.141081	0	-0.120974	-0.175723	-0.172283	0.815481	-0.15061	-0.00933372	0	-0.118131	0.16847	-0.0386075	-0.101287	-0.144682	-0.172004	0.559975	2.09	-0.0397839	-0.126949	-0.0951711	0.56052	2.09
0.14	-0.0106987	-0.101538	0.000325099	-0.0301674	0.918976	-0.197519	0.500391	0.0877646	-0.17949	0.44872	0.174665	0.142566	0	-0.0893112	-0.194747	-0.173564	0.872601	-0.202563	-0.069734	0	-0.117808	0.180387	-0.0322902	-0.0947785	-0.147255	-0.168539	0.554932	2.09	-0.0446781	-0.118704	-0.116019	0.556631	2.09
0.15	-0.00641096	-0.108727	-0.00490592	-0.0170756	0.921518	-0.195383	0.479719	0.100117	-0.177426	0.449417	0.189681	0.146896	0	-0.0626344	-0.209353	-0.172536	0.921003	-0.236415	-0.125035	0	-0.121099	0.188464	-0.026454	-0.0874039	-0.149303	-0.164312	0.550893	2.09	-0.0483116	-0.111529	-0.134882	0.552636	2.09
0.16	-0.00527692	-0.115337	-0.00913872	-0.00427758	0.923702	-0.193342	0.462148	0.110663	-0.178224	0.449171	0.205424	0.154285	0	-0.0295179	-0.22241	-0.166468	0.969343	-0.251236	-0.177919	0	-0.120662	0.195216	-0.0216213	-0.0815533	-0.151198	-0.160466	0.550325	2.09	-0.0520445	-0.105306	-0.151186	0.54978	2.09
0.17	-0.00150176	-0.116858	-0.0130214	0.00825907	0.926507	-0.191427	0.43996	0.115783	-0.177851	0.44572	0.220726	0.164196	0	-0.00163597	-0.228051	-0.160393	1.00733	-0.247381	-0.221146	0	-0.123656	0.195536	-0.0168379	-0.0751175	-0.152022	-0.15658	0.550518	2.09	-0.0540533	-0.100968	-0.163254	0.546176	2.09
0.18	-0.000205584	-0.118536	-0.015545	0.0205797	0.929069	-0.189657	0.419816	0.11999	-0.180093	0.440558	0.235378	0.175904	0	0.0312732	-0.232487	-0.150372	1.04307	-0.23186	-0.260629	0	-0.123602	0.195647	-0.0132601	-0.0701633	-0.152943	-0.152817	0.553476	2.09	-0.0560237	-0.0974879	-0.172215	0.543273	2.09
0.19	0.00204588	-0.115989	-0.0175247	0.0326446	0.931999	-0.188004	0.39796	0.119306	-0.182336	0.433839	0.249174	0.189729	0	0.0615847	-0.230824	-0.141466	1.06969	-0.207603	-0.290747	0	-0.124931	0.190498	-0.0101835	-0.0649802	-0.153009	-0.148742	0.556671	2.09	-0.0567745	-0.0957696	-0.177233	0.539908	2.09
0.2	0.00208784	-0.114072	-0.0188417	0.0445658	0.934695	-0.18642	0.377942	0.118898	-0.185811	0.425487	0.26147	0.203638	0	0.0953849	-0.228824	-0.131155	1.09268	-0.179506	-0.313776	0	-0.123622	0.18577	-0.0076887	-0.0611713	-0.153342	-0.144459	0.56172	2.09	-0.0576438	-0.0947858	-0.179268	0.53718	2.09
0.21	0.00254641	-0.109283	-0.0201093	0.0562624	0.937633	-0.184887	0.356932	0.115467	-0.188535	0.415582	0.272214	0.217888	0	0.126989	-0.2227	-0.123342	1.10732	-0.149219	-0.326879	0	-0.123163	0.1774	-0.00543658	-0.0571305	-0.153228	-0.139205	0.566635	2.09	-0.0576937	-0.0950088	-0.178872	0.534406	2.09
0.22	0.00135035	-0.105402	-0.0215442	0.067879	0.940337	-0.183373	0.337415	0.112233	-0.194752	0.404961	0.283191	0.237178	0	0.160456	-0.21685	-0.115825	1.11787	-0.117723	-0.331414	0	-0.120794	0.169838	-0.00321835	-0.0541855	-0.153699	-0.132865	0.573224	2.09	-0.0581128	-0.0953796	-0.177558	0.532646	2.09
0.23	0.000500974	-0.0999144	-0.0237448	0.0792758	0.943191	-0.181811	0.316684	0.109222	-0.193355	0.391521	0.289678	0.246095	0	0.191666	-0.208514	-0.111275	1.12084	-0.0870131	-0.328648	0	-0.11939	0.160055	-0.000601444	-0.050826	-0.15399	-0.125462	0.58016	2.09	-0.0579219	-0.0961887	-0.176385	0.531334	2.09
0.24	-0.00142265	-0.095854	-0.0267794	0.0906207	0.945801	-0.180203	0.296607	0.107825	-0.192143	0.376832	0.295559	0.255753	0	0.223611	-0.201429	-0.107596	1.11977	-0.0549926	-0.317842	0	-0.116847	0.151676	0.00249484	-0.0481646	-0.155006	-0.116894	0.589041	2.09	-0.058164	-0.0965444	-0.176528	0.531231	2.09
0.25	-0.00345126	-0.0919004	-0.0306293	0.101857	0.948316	-0.178561	0.276102	0.106825	-0.189742	0.360699	0.300515	0.264701	0	0.254379	-0.194269	-0.105692	1.11316	-0.0220004	-0.299435	0	-0.114463	0.143187	0.00592968	-0.0453801	-0.156354	-0.107334	0.599077	2.09	-0.0583853	-0.0965667	-0.178558	0.531947	2.09
0.26	-0.0049588	-0.0868793	-0.0349362	0.112901	0.950844	-0.176906	0.254608	0.104802	-0.186204	0.343155	0.304635	0.272974	0	0.282436	-0.186065	-0.106313	1.09963	0.0134472	-0.271307	0	-0.113131	0.133214	0.00917554	-0.0416035	-0.157656	-0.0965979	0.609207	2.09	-0.0581679	-0.0964968	-0.18273	0.533097	2.09
0.27	-0.00671349	-0.0829069	-0.0396241	0.123881	0.953138	-0.175238	0.232684	0.104134	-0.181341	0.323936	0.307757	0.27906	0	0.309637	-0.179036	-0.107539	1.08141	0.0471137	-0.239539	0	-0.11167	0.124256	0.0123557	-0.0375864	-0.159313	-0.0854668	0.62019	2.09	-0.0580697	-0.0959589	-0.188845	0.534812	2.09
0.28	-0.00833414	-0.0792765	-0.0444284	0.134765	0.955242	-0.173574	0.210101	0.103914	-0.175241	0.303351	0.309983	0.282953	0	0.335015	-0.172638	-0.109758	1.05788	0.0788771	-0.203754	0	-0.110598	0.115474	0.0151384	-0.0328533	-0.161081	-0.0738023	0.631232	2.09	-0.0578564	-0.0952425	-0.196473	0.536755	2.09
0.29	-0.00976883	-0.0758714	-0.0492265	0.145561	0.957128	-0.171923	0.187092	0.103899	-0.167999	0.281984	0.311465	0.28454	0	0.358382	-0.166786	-0.112795	1.02924	0.107122	-0.165759	0	-0.109967	0.106721	0.0174217	-0.0273105	-0.16287	-0.0616863	0.641984	2.09	-0.0574707	-0.0945105	-0.205106	0.538719	2.09
0.3	-0.0110127	-0.0725805	-0.053984	0.15628	0.958766	-0.17029	0.164076	0.103863	-0.159684	0.260658	0.312433	0.283807	0	0.379665	-0.161325	-0.116405	0.995781	0.130382	-0.127516	0	-0.109771	0.0978555	0.0192229	-0.0209478	-0.164614	-0.0492161	0.652204	2.09	-0.0568323	-0.0938971	-0.214291	0.540509	2.09
0.31	-0.0120795	-0.0693501	-0.0587228	0.166932	0.960129	-0.168677	0.141506	0.103667	-0.150388	0.240236	0.313196	0.280913	0	0.398871	-0.156129	-0.120274	0.95789	0.147791	-0.0906936	0	-0.109976	0.0888018	0.0206459	-0.0138248	-0.166273	-0.0365035	0.661747	2.09	-0.0558387	-0.0934908	-0.223699	0.541948	2.09
0.32	-0.0129819	-0.0662128	-0.0634946	0.177527	0.961199	-0.167077	0.119725	0.103313	-0.140183	0.221376	0.31408	0.276085	0	0.416023	-0.151168	-0.124043	0.915998	0.159267	-0.0563587	0	-0.110543	0.0795822	0.0218377	-0.00605049	-0.167831	-0.023654	0.67056	2.09	-0.0543971	-0.0933425	-0.233113	0.542924	2.09
0.33	-0.0134271	-0.0638104	-0.0683877	0.188098	0.962002	-0.165426	0.0967189	0.105389	-0.115623	0.200574	0.309607	0.24936	0	0.430748	-0.147426	-0.127666	0.870642	0.166163	-0.0234333	0	-0.111797	0.0707812	0.0229677	0.00235785	-0.169285	-0.0104769	0.678514	2.09	-0.0525139	-0.0934709	-0.242678	0.543535	2.09
0.34	-0.0143263	-0.0608817	-0.0733622	0.198609	0.962421	-0.163857	0.0779829	0.103956	-0.109372	0.187328	0.314018	0.249683	0	0.444205	-0.142566	-0.129878	0.821968	0.166798	0.00340349	0	-0.112653	0.0613088	0.024143	0.0108669	-0.170575	0.00192014	0.686205	2.09	-0.050047	-0.0940598	-0.250962	0.543442	2.09
0.35	-0.0147537	-0.0584326	-0.0787033	0.209112	0.96256	-0.16224	0.0594168	0.103256	-0.100025	0.175285	0.318346	0.245476	0	0.455048	-0.138854	-0.132182	0.770512	0.165214	0.0303464	0	-0.114182	0.0519786	0.0253852	0.0199485	-0.171786	0.0149769	0.693062	2.09	-0.047353	-0.0949908	-0.2594	0.543446	2.09
0.36	-0.0149154	-0.0565136	-0.0844402	0.219618	0.962399	-0.160577	0.0412009	0.103267	-0.0881206	0.164481	0.322908	0.237489	0	0.46356	-0.136178	-0.134244	0.716707	0.161542	0.0563644	0	-0.116138	0.0428806	0.0268085	0.029354	-0.172851	0.0282268	0.699367	2.09	-0.0445021	-0.096383	-0.267286	0.543546	2.09
0.37	-0.014769	-0.0551615	-0.0906447	0.230138	0.961947	-0.158863	0.0231494	0.103973	-0.0739399	0.154767	0.327813	0.2262	0	0.469741	-0.134681	-0.136316	0.661064	0.156605	0.0817721	0	-0.118563	0.0340408	0.0284587	0.0390189	-0.17374	0.0416317	0.705189	2.09	-0.0415984	-0.0982616	-0.274484	0.543861	2.09
0.38	-0.0140187	-0.0544803	-0.0973762	0.240689	0.961243	-0.157086	0.00431715	0.105684	-0.0547144	0.145042	0.331709	0.207596	0	0.47333	-0.134687	-0.139063	0.604156	0.151455	0.107379	0	-0.121783	0.0255103	0.0303036	0.0490227	-0.174461	0.0554931	0.710424	2.09	-0.0387431	-0.100575	-0.281308	0.544575	2.09
